<?xml version="1.0" standalone="no"?>
<!DOCTYPE svg PUBLIC "-//W3C//DTD SVG 20010904//EN"
 "http://www.w3.org/TR/2001/REC-SVG-20010904/DTD/svg10.dtd">
<svg version="1.0" xmlns="http://www.w3.org/2000/svg"
 width="259.000000pt" height="259.000000pt" viewBox="0 0 259.000000 259.000000"
 preserveAspectRatio="xMidYMid meet">
<metadata>
Created by potrace 1.11, written by Peter Selinger 2001-2013
</metadata>
<g transform="translate(0.000000,259.000000) scale(0.100000,-0.100000)"
fill="#000000" stroke="none">
<path d="M0 1300 l0 -970 1295 0 1295 0 0 970 0 970 -1295 0 -1295 0 0 -970z
m1824 608 c-1 -9 -5 -59 -9 -112 l-7 -96 41 0 c23 0 41 -3 41 -7 0 -5 -24 -68
-54 -141 l-54 -134 -28 -309 -28 -310 -66 -19 c-36 -10 -123 -35 -195 -55 -71
-20 -138 -38 -147 -41 -17 -5 -18 12 -18 263 0 251 -2 273 -23 343 l-23 75
-69 -210 -70 -210 -101 -3 -101 -3 -53 92 -53 92 46 141 c26 78 47 147 47 154
0 34 25 2 74 -95 30 -60 55 -101 56 -93 0 8 33 116 74 240 l73 225 62 3 61 3
0 115 0 114 263 -2 c237 -3 262 -5 261 -20z m-1084 -235 c25 -11 58 -34 73
-51 l29 -30 -57 -175 c-31 -96 -62 -183 -70 -193 -11 -16 -30 -20 -119 -22
l-106 -4 0 -129 0 -130 -92 3 -93 3 -3 365 c-1 201 0 371 3 379 4 11 40 13
198 9 166 -4 198 -7 237 -25z m1393 -353 c64 -168 125 -329 136 -358 12 -29
21 -55 21 -57 0 -3 -47 -5 -104 -5 l-105 0 -21 58 c-11 31 -23 63 -26 71 -4
12 -28 13 -140 8 -154 -8 -142 -18 -101 88 l23 60 83 3 c59 2 82 6 78 15 -2 7
-19 55 -37 107 l-33 95 48 124 c31 80 51 118 56 109 4 -7 59 -151 122 -318z"/>
<path d="M497 1543 c-4 -3 -7 -48 -7 -100 l0 -93 55 0 c91 0 135 33 135 102 0
45 -23 75 -68 88 -42 11 -105 13 -115 3z"/>
</g>
</svg>
